<?xml version="1.0" encoding="UTF-8" standalone="no"?>
<!-- Created with Inkscape (http://www.inkscape.org/) -->

<svg
   xmlns:dc="http://purl.org/dc/elements/1.1/"
   xmlns:cc="http://creativecommons.org/ns#"
   xmlns:rdf="http://www.w3.org/1999/02/22-rdf-syntax-ns#"
   xmlns:svg="http://www.w3.org/2000/svg"
   xmlns="http://www.w3.org/2000/svg"
   xmlns:sodipodi="http://sodipodi.sourceforge.net/DTD/sodipodi-0.dtd"
   xmlns:inkscape="http://www.inkscape.org/namespaces/inkscape"
   width="744.09448819"
   height="1052.3622047"
   id="svg2"
   version="1.1"
   inkscape:version="0.48.4 r9939"
   sodipodi:docname="New document 1">
  <defs
     id="defs4" />
  <sodipodi:namedview
     id="base"
     pagecolor="#ffffff"
     bordercolor="#666666"
     borderopacity="1.0"
     inkscape:pageopacity="0.0"
     inkscape:pageshadow="2"
     inkscape:zoom="0.98994949"
     inkscape:cx="236.61844"
     inkscape:cy="689.31641"
     inkscape:document-units="px"
     inkscape:current-layer="layer1"
     showgrid="false"
     inkscape:window-width="1680"
     inkscape:window-height="987"
     inkscape:window-x="-8"
     inkscape:window-y="-8"
     inkscape:window-maximized="1" />
  <metadata
     id="metadata7">
    <rdf:RDF>
      <cc:Work
         rdf:about="">
        <dc:format>image/svg+xml</dc:format>
        <dc:type
           rdf:resource="http://purl.org/dc/dcmitype/StillImage" />
        <dc:title></dc:title>
      </cc:Work>
    </rdf:RDF>
  </metadata>
  <g
     inkscape:label="Layer 1"
     inkscape:groupmode="layer"
     id="layer1">
    <path
       sodipodi:type="arc"
       style="color:#000000;fill:#728baa;fill-opacity:1;fill-rule:nonzero;stroke:none;stroke-width:6;marker:none;visibility:visible;display:inline;overflow:visible;enable-background:accumulate;stroke-opacity:1"
       id="path2985"
       sodipodi:cx="296.98486"
       sodipodi:cy="355.862"
       sodipodi:rx="68.690376"
       sodipodi:ry="68.690376"
       d="m 365.67524,355.862 a 68.690376,68.690376 0 1 1 -137.38075,0 68.690376,68.690376 0 1 1 137.38075,0 z" />
    <path
       sodipodi:type="arc"
       style="color:#000000;fill:#ffffff;fill-opacity:1;fill-rule:nonzero;stroke:none;stroke-width:6;marker:none;visibility:visible;display:inline;overflow:visible;enable-background:accumulate"
       id="path3759"
       sodipodi:cx="93.43911"
       sodipodi:cy="354.85184"
       sodipodi:rx="18.182745"
       sodipodi:ry="18.182745"
       d="m 111.62185,354.85184 a 18.182745,18.182745 0 1 1 -36.365485,0 18.182745,18.182745 0 1 1 36.365485,0 z"
       transform="matrix(2.0277779,0,0,2.0555556,116.09738,-388.70799)" />
    <path
       sodipodi:type="arc"
       style="color:#000000;fill:#728baa;fill-opacity:1;fill-rule:nonzero;stroke:none;stroke-width:6;marker:none;visibility:visible;display:inline;overflow:visible;enable-background:accumulate"
       id="path3759-1"
       sodipodi:cx="93.43911"
       sodipodi:cy="354.85184"
       sodipodi:rx="18.182745"
       sodipodi:ry="18.182745"
       d="m 111.62185,354.85184 a 18.182745,18.182745 0 1 1 -36.365485,0 18.182745,18.182745 0 1 1 36.365485,0 z"
       transform="matrix(1.4802868,0,0,1.5555556,172.15859,-214.31249)" />
    <path
       sodipodi:type="arc"
       style="color:#000000;fill:#1d242f;fill-opacity:1;fill-rule:nonzero;stroke:none;stroke-width:6;marker:none;visibility:visible;display:inline;overflow:visible;enable-background:accumulate"
       id="path3759-1-7"
       sodipodi:cx="93.43911"
       sodipodi:cy="354.85184"
       sodipodi:rx="18.182745"
       sodipodi:ry="18.182745"
       d="m 111.62185,354.85184 a 18.182745,18.182745 0 1 1 -36.365485,0 18.182745,18.182745 0 1 1 36.365485,0 z"
       transform="matrix(1.1463752,0,0,1.2046655,206.45515,-91.49573)" />
    <path
       style="fill:#ffffff;fill-opacity:1;stroke:none"
       d="m 320.08311,313.65487 -0.14792,9.67567 7.90527,-4.87219 z"
       id="path3819"
       inkscape:connector-curvature="0"
       sodipodi:nodetypes="cccc" />
    <path
       style="color:#000000;fill:#ffffff;fill-opacity:1;fill-rule:nonzero;stroke:none;stroke-width:6;marker:none;visibility:visible;display:inline;overflow:visible;enable-background:accumulate"
       d="m 332.91097,393.01303 c 0,3.25453 -8.57994,11.4592 -17.35732,11.4592 -8.77739,0 -17.15555,-2.89086 -17.15555,-6.14539 0,-3.25454 10.97215,-7.07044 19.68093,-8.1657 10.04008,-1.26269 14.83194,-0.40265 14.83194,2.85189 z"
       id="path3821"
       inkscape:connector-curvature="0"
       sodipodi:nodetypes="sssss" />
    <path
       style="color:#000000;fill:#728baa;fill-opacity:1;fill-rule:nonzero;stroke:none;stroke-width:6;marker:none;visibility:visible;display:inline;overflow:visible;enable-background:accumulate"
       d="m 314.44028,395.09348 c 0,1.15384 -3.04188,4.06267 -6.15375,4.06267 -3.11188,0 -6.08222,-1.02491 -6.08222,-2.17875 0,-1.15384 3.88999,-2.5067 6.97755,-2.89501 3.55954,-0.44767 5.25842,-0.14275 5.25842,1.01109 z"
       id="path3821-4"
       inkscape:connector-curvature="0"
       sodipodi:nodetypes="sssss" />
  </g>
</svg>
